<svg xmlns="http://www.w3.org/2000/svg" viewBox="0 0 1390.1 1756.79"><title>TPM-Fail final logo</title><g id="Timer"><path d="M1375.37,1611.62c0,25-16.21,45.25-36.2,45.25s-36.2-20.26-36.2-45.25,25-62.06,34.48-62.06S1375.37,1586.63,1375.37,1611.62Z" transform="translate(-282.62 -75.89)"/><ellipse cx="808.33" cy="1538.32" rx="18.1" ry="21.98"/><path d="M1097.13,1680.35c-4.33-7.38-8.9-7.12-13.23,0-19.83,29.5-49.84,73.74-49.84,95.87a56.46,56.46,0,1,0,112.91,0C1147,1753.84,1117,1709.85,1097.13,1680.35Z" transform="translate(-282.62 -75.89)"/><path d="M1000,967.9a72.43,72.43,0,0,0,131.26-46.7l236.6-100.72a44.54,44.54,0,0,0,19.84-16.6l18.51-28.26L1373,771.94a44.68,44.68,0,0,0-22.38,3.29L1112.34,876.66A72.49,72.49,0,0,0,1000,967.9Zm49.59-64.54a24.2,24.2,0,1,1-12.79,31.74A24.2,24.2,0,0,1,1049.63,903.36Z" transform="translate(-282.62 -75.89)"/><path d="M1149.68,834l293.94-115.11c-36.57-91.49-175.25-225-395.61-225.51l-1.29,282.13c.66,0,1.32-.15,2-.09C1093.11,779.49,1133.06,804,1149.68,834Z" transform="translate(-282.62 -75.89)"/><path d="M863.44,1410.31A523.82,523.82,0,1,0,563.71,783.19h55.51c61.12-189.13,238.9-326.32,448.12-326.32,259.6,0,470.81,211.21,470.81,470.81s-211.21,470.81-470.81,470.81a467.91,467.91,0,0,1-240.81-66.39H734.42A521,521,0,0,0,863.44,1410.31Z" transform="translate(-282.62 -75.89)"/><path d="M1572.16,593l-28.77-39.59a609.38,609.38,0,0,0-90.52-92.82l58.51-73.24L1555,422.17a10,10,0,0,0,14-1.57l32.15-40.24a21.54,21.54,0,0,0-3.38-30.26l-117.33-93.72a21.53,21.53,0,0,0-30.26,3.38L1418.1,300a10,10,0,0,0,1.58,14.05l39.44,31.51-60,75.08a601.38,601.38,0,0,0-258.84-94.7V257.58h170.59V174.72a98.94,98.94,0,0,0-98.83-98.83H931.64a98.94,98.94,0,0,0-98.83,98.83v82.86H995.09v68.36a601.4,601.4,0,0,0-239.87,82.71l-54.53-66.28,40.6-33.4a9.41,9.41,0,0,0,1.28-13.24L711.78,258.3a20.26,20.26,0,0,0-28.52-2.77L574.14,345.32a20.25,20.25,0,0,0-2.77,28.51l30.79,37.43a9.41,9.41,0,0,0,13.24,1.29l36.69-30.19,50.81,61.77c-4.87,3.91-8.31,6.76-8.31,6.76A609.66,609.66,0,0,0,592.07,553.4L563.22,593a604.16,604.16,0,0,0-83.38,190.24h49.85c63.21-238,280.12-413.35,538-413.35,307.42,0,556.63,249.21,556.63,556.62-.35,307.27-249.35,556.28-556.63,556.63a554.69,554.69,0,0,1-381.15-151H618.17a606.2,606.2,0,0,0,115.51,99.33l3.13,2c7.16,34.31-4.29,77.68,31.52,98.57,20,11.69,43.42-23.37,66.8-15,31.64,11.3,38.4,43.41,51.76,75.14s40.08,68.47,88.51,26.72,28.39-66.8,48.43-80.16,33,20.21,60.11,21.71c19.5,1.09,35.48-17.5,49.77-32.06a608.12,608.12,0,0,0,154-37.78c1.08,1,2.27,2,3.61,2.94,25.37,18.69,46.43,11.37,54.78,8,9.35-3.75,14.14-28,16.45-46.17q25.31-14.1,49.34-30.69a12.49,12.49,0,0,1,4.35,6.72c6.68,23.38-6.68,50.1,6.68,66.8s27.31,10.55,30.65,8.88c23.19-11.59-5.82-71.64.21-89.85,8.44-25.45,20.09-40.59,25.39-46.58a605.74,605.74,0,0,0,93-777.73ZM884.35,206V174.72a47.34,47.34,0,0,1,47.29-47.29h280.42a47.34,47.34,0,0,1,47.29,47.29V206Zm207.54,116c-8-.31-16.09-.6-24.2-.6s-16.16.29-24.2.6V257.58h48.4Z" transform="translate(-282.62 -75.89)"/></g><g id="Chip"><path d="M830.59,880.39H817.52V842.93H767.69v37.47H702.31V842.91H652.48v37.49H587.1v-37.5H537.27v37.5H471.89V842.88H422.06v37.52H356.67V842.86H306.85v37.54H282.62v360H307v38.18H356.8v-38.18h65.38v38.19H472v-38.2h65.38v38.21h49.84v-38.22H652.6v38.23h49.84v-38.24h65.38v38.25h49.84v-38.25h23v-360ZM346.68,852.86ZM332.45,1190.6V930.22H790.76V1190.6ZM692.31,852.91h0Z" transform="translate(-282.62 -75.89)"/><rect x="305.84" y="899.31" width="161.32" height="171.15"/></g></svg>